<svg width="64" height="64" viewBox="0 0 64 64" fill="none" xmlns="http://www.w3.org/2000/svg">
  <defs>
    <linearGradient id="g" x1="12" y1="10" x2="54" y2="56" gradientUnits="userSpaceOnUse">
      <stop stop-color="#6366F1"/>
      <stop offset="0.55" stop-color="#22C55E"/>
      <stop offset="1" stop-color="#EC4899"/>
    </linearGradient>
  </defs>
  <rect x="8" y="8" width="48" height="48" rx="14" fill="url(#g)"/>
  <path
    d="M22 27c0-6.1 4.9-11 11-11h12c2.8 0 5 2.2 5 5s-2.2 5-5 5H33c-2.8 0-5 2.2-5 5s2.2 5 5 5h2c6.1 0 11 4.9 11 11s-4.9 11-11 11H23c-2.8 0-5-2.2-5-5s2.2-5 5-5h12c2.8 0 5-2.2 5-5s-2.2-5-5-5h-2c-6.1 0-11-4.9-11-11Z"
    fill="white"
    fill-opacity="0.92"
  />
</svg>

