<svg width="512" height="512" viewBox="0 0 512 512" fill="none" xmlns="http://www.w3.org/2000/svg">
  <defs>
    <linearGradient id="g" x1="96" y1="72" x2="420" y2="448" gradientUnits="userSpaceOnUse">
      <stop stop-color="#6366F1"/>
      <stop offset="0.55" stop-color="#22C55E"/>
      <stop offset="1" stop-color="#EC4899"/>
    </linearGradient>
    <filter id="s" x="-20%" y="-20%" width="140%" height="140%" color-interpolation-filters="sRGB">
      <feDropShadow dx="0" dy="10" stdDeviation="18" flood-color="#000000" flood-opacity="0.35"/>
    </filter>
  </defs>

  <rect x="56" y="56" width="400" height="400" rx="96" fill="url(#g)" filter="url(#s)"/>

  <!-- interlinked "S" paths (support + companion) -->
  <path
    d="M170 210c0-44 36-80 80-80h92c22 0 40 18 40 40s-18 40-40 40h-92c-22 0-40 18-40 40s18 40 40 40h12c44 0 80 36 80 80s-36 80-80 80h-92c-22 0-40-18-40-40s18-40 40-40h92c22 0 40-18 40-40s-18-40-40-40h-12c-44 0-80-36-80-80Z"
    fill="white"
    fill-opacity="0.92"
  />

  <!-- small heart spark (sahyog) -->
  <path
    d="M310 168c8-10 24-10 32 0 8 10 6 24-4 32l-12 10-12-10c-10-8-12-22-4-32Z"
    fill="white"
    fill-opacity="0.92"
  />
</svg>
